<svg width="491" height="252" viewBox="0 0 491 252" fill="none" xmlns="http://www.w3.org/2000/svg">
<g clip-path="url(#clip0_156_37)">
<rect width="492" height="252" fill="#DC1166"/>
<path d="M317.863 111.061C318.278 114.253 318.559 117.487 318.699 120.757L318.199 120.779C318.268 122.386 318.303 124.002 318.303 125.626C318.303 127.25 318.268 128.867 318.199 130.474L318.699 130.495C318.559 133.766 318.278 137 317.863 140.191L317.367 140.127C316.948 143.352 316.391 146.534 315.701 149.666L316.19 149.774C315.488 152.96 314.651 156.095 313.685 159.172L313.208 159.022C312.236 162.118 311.132 165.155 309.903 168.128L310.365 168.319C309.121 171.327 307.75 174.27 306.257 177.139L305.814 176.909C304.32 179.781 302.705 182.58 300.974 185.298L301.396 185.567C299.651 188.308 297.791 190.968 295.82 193.539L295.424 193.235C293.458 195.801 291.382 198.279 289.205 200.661L289.574 200.998C287.385 203.394 285.093 205.693 282.704 207.889L282.366 207.521C279.99 209.706 277.519 211.788 274.959 213.761L275.264 214.157C272.698 216.135 270.043 218.004 267.307 219.756L267.038 219.334C264.323 221.072 261.529 222.695 258.661 224.196L258.892 224.639C256.026 226.138 253.087 227.517 250.081 228.767L249.889 228.305C246.919 229.54 243.884 230.65 240.791 231.628L240.942 232.104C237.866 233.076 234.732 233.918 231.547 234.623L231.439 234.135C228.307 234.829 225.126 235.389 221.901 235.811L221.966 236.307C218.775 236.725 215.541 237.007 212.271 237.148L212.249 236.648C210.642 236.717 209.026 236.752 207.402 236.752C205.777 236.752 204.161 236.717 202.554 236.648L202.533 237.148C199.262 237.007 196.028 236.725 192.837 236.307L192.902 235.811C189.677 235.389 186.496 234.829 183.364 234.135L183.256 234.623C180.071 233.918 176.938 233.076 173.861 232.104L174.012 231.628C170.919 230.65 167.884 229.54 164.914 228.305L164.722 228.767C161.716 227.517 158.777 226.138 155.911 224.639L156.143 224.196C153.274 222.695 150.48 221.072 147.766 219.335L147.496 219.756C144.76 218.004 142.105 216.135 139.539 214.157L139.844 213.761C137.285 211.788 134.813 209.706 132.437 207.521L132.099 207.889C129.71 205.693 127.418 203.394 125.229 200.998L125.598 200.661C123.421 198.279 121.345 195.801 119.38 193.235L118.983 193.539C117.013 190.968 115.152 188.308 113.407 185.567L113.829 185.298C112.099 182.58 110.483 179.781 108.989 176.909L108.546 177.139C107.053 174.27 105.682 171.327 104.438 168.319L104.9 168.128C103.671 165.155 102.567 162.118 101.595 159.022L101.118 159.172C100.152 156.095 99.3147 152.96 98.6135 149.774L99.1018 149.666C98.4125 146.534 97.855 143.352 97.4355 140.127L96.9397 140.191C96.5247 137 96.2442 133.766 96.1041 130.495L96.6036 130.474C96.5348 128.867 96.5 127.25 96.5 125.626C96.5 124.002 96.5348 122.386 96.6036 120.779L96.1041 120.757C96.2442 117.487 96.5247 114.253 96.9397 111.061L97.4355 111.126C97.855 107.9 98.4125 104.718 99.1018 101.586L98.6135 101.479C99.3147 98.2926 100.152 95.1576 101.118 92.0802L101.595 92.23C102.567 89.1343 103.671 86.097 104.9 83.1247L104.438 82.9337C105.682 79.9249 107.053 76.9825 108.546 74.1131L108.989 74.3438C110.483 71.4714 112.099 68.6725 113.829 65.954L113.407 65.6856C115.152 62.9443 117.013 60.2844 118.983 57.713L119.38 58.017C121.345 55.451 123.421 52.9734 125.598 50.5912L125.229 50.2539C127.418 47.8588 129.71 45.5597 132.099 43.3637L132.437 43.7317C134.813 41.5467 137.285 39.4642 139.844 37.4911L139.539 37.0951C142.105 35.1172 144.76 33.2487 147.496 31.4968L147.766 31.9179C150.48 30.18 153.274 28.5572 156.143 27.0565L155.911 26.6135C158.777 25.114 161.716 23.7357 164.722 22.4855L164.914 22.9471C167.884 21.7119 170.919 20.6022 174.012 19.6248L173.861 19.148C176.938 18.1761 180.071 17.3343 183.256 16.6291L183.364 17.1172C186.496 16.4238 189.677 15.8631 192.902 15.4412L192.837 14.9454C196.028 14.5278 199.262 14.2456 202.533 14.1047L202.554 14.6042C204.161 14.535 205.777 14.5 207.402 14.5C209.026 14.5 210.642 14.535 212.249 14.6042L212.27 14.1047C215.541 14.2456 218.775 14.5278 221.966 14.9454L221.901 15.4411C225.126 15.8631 228.307 16.4238 231.439 17.1172L231.547 16.629C234.732 17.3343 237.866 18.1761 240.942 19.148L240.791 19.6248C243.884 20.6022 246.919 21.7119 249.889 22.9471L250.081 22.4855C253.087 23.7357 256.026 25.1139 258.892 26.6135L258.661 27.0565C261.529 28.5572 264.323 30.18 267.038 31.9179L267.307 31.4968C270.043 33.2487 272.698 35.1172 275.264 37.0951L274.959 37.4911C277.519 39.4642 279.99 41.5467 282.366 43.7317L282.704 43.3637C285.093 45.5597 287.385 47.8588 289.574 50.2539L289.205 50.5912C291.382 52.9734 293.458 55.451 295.424 58.0171L295.82 57.713C297.791 60.2844 299.651 62.9443 301.396 65.6856L300.974 65.954C302.705 68.6725 304.32 71.4714 305.814 74.3438L306.257 74.1131C307.75 76.9825 309.121 79.9249 310.365 82.9337L309.903 83.1247C311.132 86.097 312.236 89.1342 313.208 92.23L313.685 92.0801C314.651 95.1576 315.488 98.2925 316.19 101.479L315.701 101.586C316.391 104.718 316.948 107.9 317.367 111.126L317.863 111.061Z" stroke="white" stroke-dasharray="10 10"/>
<path d="M291.859 110.721C292.382 113.829 292.737 116.995 292.914 120.208L292.414 120.235C292.501 121.806 292.545 123.388 292.545 124.981C292.545 126.574 292.501 128.156 292.414 129.727L292.914 129.754C292.737 132.967 292.382 136.133 291.859 139.241L291.366 139.158C290.837 142.304 290.134 145.391 289.269 148.409L289.749 148.547C288.867 151.625 287.816 154.631 286.607 157.556L286.145 157.365C284.931 160.301 283.556 163.154 282.033 165.913L282.471 166.155C280.928 168.949 279.233 171.647 277.397 174.238L276.989 173.949C275.157 176.534 273.184 179.011 271.081 181.37L271.454 181.703C269.335 184.079 267.086 186.336 264.716 188.461L264.382 188.089C262.029 190.199 259.557 192.18 256.978 194.019L257.268 194.426C254.682 196.27 251.989 197.972 249.2 199.521L248.957 199.084C246.201 200.615 243.351 201.996 240.418 203.216L240.61 203.678C237.688 204.893 234.683 205.95 231.607 206.838L231.469 206.357C228.452 207.227 225.366 207.934 222.22 208.466L222.304 208.959C219.196 209.485 216.031 209.842 212.818 210.02L212.791 209.521C211.22 209.608 209.638 209.652 208.045 209.652C206.452 209.652 204.87 209.608 203.299 209.521L203.271 210.02C200.059 209.842 196.894 209.485 193.786 208.959L193.869 208.466C190.724 207.934 187.638 207.227 184.621 206.357L184.482 206.838C181.406 205.95 178.402 204.893 175.48 203.678L175.672 203.216C172.739 201.996 169.889 200.615 167.133 199.084L166.89 199.521C164.101 197.972 161.408 196.27 158.822 194.426L159.112 194.019C156.533 192.18 154.061 190.199 151.707 188.089L151.374 188.461C149.004 186.336 146.755 184.079 144.636 181.703L145.009 181.37C142.906 179.011 140.933 176.534 139.101 173.949L138.693 174.238C136.857 171.647 135.162 168.949 133.619 166.155L134.057 165.913C132.534 163.154 131.159 160.301 129.945 157.365L129.483 157.556C128.274 154.631 127.223 151.625 126.341 148.547L126.821 148.409C125.956 145.391 125.253 142.304 124.724 139.158L124.231 139.241C123.708 136.133 123.353 132.967 123.176 129.754L123.675 129.727C123.589 128.156 123.545 126.574 123.545 124.981C123.545 123.388 123.589 121.806 123.675 120.235L123.176 120.208C123.353 116.995 123.708 113.829 124.231 110.721L124.724 110.804C125.253 107.658 125.956 104.571 126.821 101.553L126.341 101.415C127.223 98.337 128.274 95.3306 129.483 92.4064L129.945 92.5974C131.159 89.6609 132.534 86.8076 134.057 84.0486L133.619 83.8069C135.162 81.0129 136.857 78.315 138.693 75.7244L139.101 76.0135C140.933 73.4283 142.906 70.9505 145.009 68.5916L144.636 68.2589C146.755 65.8826 149.004 63.6262 151.374 61.5011L151.707 61.8733C154.061 59.7626 156.533 57.7821 159.112 55.9431L158.822 55.536C161.408 53.6924 164.101 51.9901 166.89 50.4405L167.133 50.8776C169.889 49.3468 172.739 47.9658 175.672 46.7457L175.48 46.284C178.402 45.0686 181.406 44.0119 184.482 43.1245L184.621 43.6049C187.638 42.7345 190.724 42.0281 193.869 41.4958L193.786 41.0028C196.894 40.4768 200.059 40.1198 203.272 39.9416L203.299 40.4408C204.87 40.3537 206.452 40.3096 208.045 40.3096C209.638 40.3096 211.22 40.3537 212.791 40.4408L212.818 39.9416C216.031 40.1198 219.196 40.4768 222.304 41.0028L222.221 41.4958C225.366 42.0281 228.452 42.7345 231.469 43.6049L231.607 43.1245C234.683 44.0119 237.688 45.0686 240.61 46.284L240.418 46.7457C243.351 47.9658 246.201 49.3468 248.957 50.8776L249.2 50.4405C251.989 51.9901 254.682 53.6923 257.268 55.536L256.978 55.9431C259.557 57.7821 262.029 59.7626 264.382 61.8733L264.716 61.5011C267.086 63.6262 269.335 65.8826 271.454 68.2588L271.081 68.5916C273.184 70.9505 275.157 73.4283 276.989 76.0135L277.397 75.7244C279.233 78.315 280.928 81.0129 282.471 83.8069L282.033 84.0486C283.556 86.8076 284.931 89.6609 286.145 92.5974L286.607 92.4064C287.816 95.3306 288.867 98.337 289.749 101.415L289.269 101.553C290.134 104.571 290.837 107.658 291.366 110.804L291.859 110.721Z" stroke="white" stroke-dasharray="10 10"/>
<path d="M266.884 109.238C267.627 112.351 268.135 115.555 268.388 118.83L267.89 118.869C268.013 120.46 268.076 122.068 268.076 123.69C268.076 125.313 268.013 126.921 267.89 128.512L268.388 128.55C268.135 131.826 267.627 135.03 266.884 138.143L266.398 138.027C265.645 141.183 264.649 144.244 263.431 147.19L263.893 147.381C262.648 150.393 261.173 153.285 259.489 156.036L259.062 155.774C257.379 158.524 255.486 161.13 253.405 163.572L253.786 163.896C251.683 166.364 249.39 168.664 246.929 170.773L246.604 170.394C244.168 172.482 241.567 174.383 238.823 176.073L239.085 176.499C236.338 178.191 233.45 179.673 230.441 180.925L230.249 180.463C227.306 181.687 224.246 182.688 221.092 183.445L221.209 183.932C218.097 184.678 214.893 185.189 211.617 185.445L211.579 184.946C209.988 185.07 208.38 185.133 206.758 185.133C205.135 185.133 203.527 185.07 201.937 184.946L201.898 185.445C198.622 185.189 195.419 184.678 192.306 183.932L192.423 183.445C189.269 182.688 186.21 181.687 183.266 180.463L183.074 180.925C180.065 179.673 177.177 178.191 174.43 176.499L174.693 176.073C171.949 174.383 169.347 172.482 166.912 170.394L166.586 170.773C164.126 168.664 161.833 166.364 159.73 163.896L160.11 163.572C158.029 161.13 156.136 158.524 154.453 155.774L154.026 156.036C152.343 153.285 150.867 150.393 149.622 147.381L150.084 147.19C148.866 144.244 147.87 141.183 147.118 138.027L146.631 138.143C145.889 135.03 145.381 131.826 145.127 128.55L145.625 128.512C145.502 126.921 145.439 125.313 145.439 123.69C145.439 122.068 145.502 120.46 145.625 118.869L145.127 118.83C145.381 115.555 145.889 112.351 146.631 109.238L147.118 109.354C147.87 106.198 148.866 103.137 150.084 100.191L149.622 99.9998C150.867 96.9878 152.343 94.0956 154.026 91.3453L154.453 91.6063C156.136 88.8569 158.029 86.2503 160.11 83.809L159.73 83.4847C161.833 81.0172 164.126 78.7173 166.586 76.6076L166.912 76.9871C169.347 74.8985 171.949 72.9979 174.692 71.3078L174.43 70.882C177.177 69.1903 180.065 67.7077 183.074 66.4563L183.266 66.9179C186.21 65.6936 189.269 64.6924 192.423 63.9355L192.306 63.4493C195.419 62.7024 198.622 62.1914 201.898 61.9362L201.937 62.4346C203.527 62.3107 205.135 62.2476 206.758 62.2476C208.38 62.2476 209.988 62.3107 211.579 62.4346L211.617 61.9362C214.893 62.1914 218.097 62.7024 221.209 63.4493L221.092 63.9355C224.246 64.6924 227.306 65.6936 230.249 66.9179L230.441 66.4563C233.45 67.7077 236.338 69.1903 239.085 70.882L238.823 71.3078C241.567 72.9979 244.168 74.8985 246.604 76.9871L246.929 76.6076C249.39 78.7173 251.683 81.0172 253.786 83.4847L253.405 83.809C255.486 86.2503 257.379 88.8569 259.062 91.6063L259.489 91.3453C261.173 94.0956 262.648 96.9878 263.893 99.9998L263.431 100.191C264.649 103.137 265.645 106.198 266.398 109.354L266.884 109.238Z" stroke="white" stroke-dasharray="10 10"/>
<path d="M148.803 90.021C148.803 58.0136 174.75 32.0664 206.757 32.0664C238.765 32.0664 264.712 58.0135 264.712 90.021V264.352H148.803V90.021Z" fill="white"/>
<path d="M166.189 208.217C166.189 208.217 177.78 197.247 206.758 196.602C235.735 195.957 248.614 208.217 248.614 208.217" stroke="black"/>
<path d="M171.34 237.252C171.34 237.252 184.219 244.995 206.113 244.995C228.007 244.995 242.817 237.252 242.817 237.252" stroke="black"/>
<path d="M238.455 223.057C238.455 224.056 237.759 225.113 236.242 226.162C234.739 227.2 232.533 228.154 229.762 228.964C224.225 230.582 216.547 231.59 208.046 231.59C199.544 231.59 191.866 230.582 186.33 228.964C183.559 228.154 181.352 227.2 179.85 226.162C178.332 225.113 177.637 224.056 177.637 223.057C177.637 222.058 178.332 221 179.85 219.952C181.352 218.914 183.559 217.959 186.33 217.149C191.866 215.531 199.544 214.523 208.046 214.523C216.547 214.523 224.225 215.531 229.762 217.149C232.533 217.959 234.739 218.914 236.242 219.952C237.759 221 238.455 222.058 238.455 223.057Z" stroke="black"/>
<ellipse cx="206.758" cy="119.173" rx="46.3636" ry="17.4214" fill="black"/>
<path d="M160.395 70.6874C160.395 45.0814 181.152 24.3237 206.758 24.3237C232.364 24.3237 253.122 45.0814 253.122 70.6874V118.528H160.395V70.6874Z" fill="black"/>
<path d="M267.004 32.0664L227.363 45.3545C230.145 88.5407 264.222 99.1712 289.954 99.1712L296.909 88.5407C296.909 88.5407 255.876 76.5814 267.004 32.0664Z" fill="black" stroke="white"/>
<path d="M287.892 98.5262L363.877 151.435L370.96 139.176L297.184 88.314C291.756 84.976 284.673 94.6547 287.892 98.5262Z" fill="#DC1166" stroke="white"/>
<ellipse cx="400.582" cy="169.502" rx="50.8712" ry="50.9738" fill="white"/>
<path d="M467.696 181.116C467.696 208.993 445.143 231.59 417.324 231.59C389.506 231.59 366.953 208.993 366.953 181.116C366.953 153.24 389.506 130.643 417.324 130.643C445.143 130.643 467.696 153.24 467.696 181.116Z" fill="white" stroke="#DC1166"/>
<path d="M441.151 260.481L375.469 213.378L434.711 131.433L503.613 179.826V260.481H441.151Z" fill="white"/>
<path d="M255.696 35.938C255.696 35.938 251.832 47.5523 255.696 62.3927" stroke="white"/>
<path d="M249.568 38.519C249.568 38.519 244.105 57.2309 253.764 69.4905" stroke="white"/>
<path d="M239.906 41.1001C238.309 50.7787 238.311 55.9406 243.77 62.393" stroke="white"/>
<path d="M261.86 33.3569C261.86 33.3569 254.132 61.7474 267.011 72.0712" stroke="white"/>
</g>
<defs>
<clipPath id="clip0_156_37">
<rect width="492" height="252" fill="white"/>
</clipPath>
</defs>
</svg>
