<svg width="24" height="24" viewBox="0 0 24 24" fill="none" xmlns="http://www.w3.org/2000/svg">
<path fill-rule="evenodd" clip-rule="evenodd" d="M18.36 16.83C16.93 15.09 13.46 14.5 12 14.5C10.54 14.5 7.07 15.09 5.64 16.83C4.62 15.49 4 13.82 4 12C4 7.59 7.59 4 12 4C16.41 4 20 7.59 20 12C20 13.82 19.38 15.49 18.36 16.83ZM8.5 9.5C8.5 7.56 10.06 6 12 6C13.94 6 15.5 7.56 15.5 9.5C15.5 11.44 13.94 13 12 13C10.06 13 8.5 11.44 8.5 9.5Z" fill="#DC1166"/>
<path fill-rule="evenodd" clip-rule="evenodd" d="M12 2C6.48 2 2 6.48 2 12C2 17.52 6.48 22 12 22C17.52 22 22 17.52 22 12C22 6.48 17.52 2 12 2ZM20 12C20 13.82 19.38 15.49 18.36 16.83C18.36 16.83 17.86 17.56 16.93 18.28C16 19 13.86 20 12 20C10.14 20 8 19 7.07 18.28C6.14 17.56 5.64 16.83 5.64 16.83C4.62 15.49 4 13.82 4 12C4 7.59 7.59 4 12 4C16.41 4 20 7.59 20 12Z" fill="#DC1166"/>
</svg>
