<svg width="32" height="32" viewBox="0 0 32 32" fill="none" xmlns="http://www.w3.org/2000/svg">
<path fill-rule="evenodd" clip-rule="evenodd" d="M2.6665 16.0001C2.6665 23.3639 8.63604 29.3334 15.9998 29.3334C23.3636 29.3334 29.3332 23.3639 29.3332 16.0001C29.3332 8.63628 23.3636 2.66675 15.9998 2.66675C8.63604 2.66675 2.6665 8.63628 2.6665 16.0001ZM27.7332 16.0001C27.7332 22.4802 22.48 27.7334 15.9998 27.7334C9.5197 27.7334 4.2665 22.4802 4.2665 16.0001C4.2665 9.51994 9.5197 4.26675 15.9998 4.26675C22.48 4.26675 27.7332 9.51994 27.7332 16.0001ZM23.9998 16.6667C23.9998 21.085 20.4181 24.6667 15.9998 24.6667C11.5816 24.6667 7.99984 21.085 7.99984 16.6667H23.9998ZM22.1982 18.2667C21.4877 21.0271 18.982 23.0667 15.9998 23.0667C13.0177 23.0667 10.5119 21.0271 9.80147 18.2667H22.1982ZM11.3332 14.0001C12.4377 14.0001 13.3332 13.1047 13.3332 12.0001C13.3332 10.8955 12.4377 10.0001 11.3332 10.0001C10.2286 10.0001 9.33317 10.8955 9.33317 12.0001C9.33317 13.1047 10.2286 14.0001 11.3332 14.0001ZM22.6665 12.0001C22.6665 13.1047 21.7711 14.0001 20.6665 14.0001C19.5619 14.0001 18.6665 13.1047 18.6665 12.0001C18.6665 10.8955 19.5619 10.0001 20.6665 10.0001C21.7711 10.0001 22.6665 10.8955 22.6665 12.0001Z" fill="black" fill-opacity="0.9"/>
</svg>
