<svg width="34" height="34" viewBox="0 0 34 34" fill="none" xmlns="http://www.w3.org/2000/svg">
<circle cx="17" cy="17" r="17" fill="#B6B6B6"/>
<path d="M20.6431 10C19.1259 10 17.6698 10.7063 16.7193 11.8223C15.7689 10.7063 14.3128 10 12.7956 10C10.1101 10 8 12.1101 8 14.7956C8 18.0916 10.9646 20.7771 15.455 24.8578L16.7193 26L17.9837 24.849C22.4741 20.7771 25.4387 18.0916 25.4387 14.7956C25.4387 12.1101 23.3286 10 20.6431 10ZM16.8065 23.5586L16.7193 23.6458L16.6322 23.5586C12.4817 19.8005 9.74387 17.3155 9.74387 14.7956C9.74387 13.0518 11.0518 11.7439 12.7956 11.7439C14.1384 11.7439 15.4463 12.6071 15.9084 13.8016H17.539C17.9924 12.6071 19.3003 11.7439 20.6431 11.7439C22.3869 11.7439 23.6948 13.0518 23.6948 14.7956C23.6948 17.3155 20.9569 19.8005 16.8065 23.5586Z" fill="#323232"/>
</svg>
