<svg width="142" height="26" viewBox="0 0 142 26" fill="none" xmlns="http://www.w3.org/2000/svg">
<path d="M17 11V20H5V11C5 7.68629 7.68629 5 11 5C14.3137 5 17 7.68629 17 11Z" stroke="#DC1166" stroke-width="2"/>
<path d="M13.5 11.5V16.5H7.5V11.5C7.5 9.84315 8.84315 8.5 10.5 8.5C12.1569 8.5 13.5 9.84315 13.5 11.5Z" stroke="#DC1166"/>
<path d="M20.5 11V24.5H1.5V11C1.5 5.75329 5.75329 1.5 11 1.5C16.2467 1.5 20.5 5.75329 20.5 11Z" stroke="#DC1166" stroke-width="3"/>
<path d="M40.9006 21H46.1406V20.42L44.0406 20.22H43.0406L40.9006 20.42V21ZM42.4006 21H44.7806C44.7406 20.02 44.7206 17.74 44.7206 16.36V12.6L44.5806 10.36L44.3206 10.2L40.7606 11.16V11.66L42.4006 11.78C42.4606 12.76 42.4806 13.64 42.4806 14.96V16.36C42.4806 17.74 42.4606 20.02 42.4006 21ZM47.5806 21H52.7606V20.42L50.7006 20.22H49.6606L47.5806 20.42V21ZM49.0606 21H51.4006C51.3606 20.02 51.3206 17.78 51.3206 16.36V13.96C51.3206 11.28 50.2806 10.16 48.4406 10.16C46.8806 10.16 45.5806 11.04 44.3606 12.66H44.0806L44.2206 13.5C45.4206 12.08 46.5406 11.4 47.5406 11.4C48.5606 11.4 49.1406 12.1 49.1406 13.94V16.36C49.1406 17.78 49.1206 20.02 49.0606 21ZM54.2206 21H59.4006V20.42L57.3006 20.22H56.2606L54.2206 20.42V21ZM55.6606 21H58.0006C57.9606 20.02 57.9406 17.78 57.9406 16.36V13.98C57.9406 11.3 56.9406 10.16 54.9606 10.16C53.4806 10.16 52.1806 10.86 50.9606 12.52H50.6406L50.8006 13.4C52.0206 11.98 53.1006 11.4 54.0806 11.4C55.1606 11.4 55.7406 12 55.7406 13.94V16.36C55.7406 17.78 55.7206 20.02 55.6606 21ZM63.6853 21.32C65.2653 21.32 66.0853 20.64 67.2853 19.32H67.9053L67.6453 18.3C66.2053 19.8 65.4653 20.2 64.7253 20.2C63.6853 20.2 63.0053 19.58 63.0053 18.36C63.0053 17.12 63.7053 16.24 65.2453 15.64C66.0253 15.36 67.1853 15.04 68.2453 14.76V14.26C67.1853 14.52 65.7853 14.86 64.7253 15.18C61.8453 16 60.8653 17.02 60.8653 18.68C60.8653 20.34 62.0653 21.32 63.6853 21.32ZM69.1853 21.3C70.1653 21.3 70.8253 20.92 71.2853 20.08L70.9453 19.8C70.6053 20.24 70.3653 20.38 70.0453 20.38C69.5653 20.38 69.3053 20.06 69.3053 19V13.9C69.3053 11.26 68.1653 10.16 65.6453 10.16C63.0653 10.16 61.4853 11.22 61.1653 12.94C61.3053 13.48 61.6853 13.78 62.2453 13.78C62.8453 13.78 63.3253 13.42 63.4053 12.44L63.6653 10.9L62.5853 11.4C63.5053 10.98 64.2253 10.8 64.9453 10.8C66.4853 10.8 67.1053 11.4 67.1053 13.58V19.08C67.2453 20.46 67.8853 21.3 69.1853 21.3ZM72.1702 21H77.4102V20.42L75.3102 20.22H74.3102L72.1702 20.42V21ZM73.6702 21H76.0502C76.0102 20.02 75.9902 17.74 75.9902 16.36V12.66L75.8502 10.36L75.5902 10.2L72.0302 11.16V11.66L73.6702 11.78C73.7302 12.76 73.7502 13.64 73.7502 14.98V16.36C73.7502 17.74 73.7302 20.02 73.6702 21ZM79.0302 21H84.2702V20.42L82.1302 20.22H81.1302L79.0302 20.42V21ZM80.5102 21H82.8902C82.8502 20.02 82.8102 17.78 82.8102 16.36V13.96C82.8102 11.28 81.6702 10.16 79.8702 10.16C78.4302 10.16 77.0902 10.82 75.6102 12.66H75.3502L75.4702 13.44C76.7902 11.94 78.0502 11.38 78.9102 11.38C79.9902 11.38 80.5702 12.02 80.5702 13.84V16.36C80.5702 17.78 80.5502 20.02 80.5102 21ZM85.6867 21H90.9667V20.42L88.8267 20.22H87.8467L85.6867 20.42V21ZM87.2067 21H89.5867C89.5467 20.02 89.5267 17.74 89.5267 16.36V13.32L89.5867 10.36L89.3267 10.2L85.5467 11.14V11.64L87.2067 11.74C87.2467 12.72 87.2867 13.68 87.2867 15.02V16.36C87.2867 17.74 87.2467 20.02 87.2067 21ZM88.2667 7.9C89.0267 7.9 89.6467 7.36 89.6467 6.58C89.6467 5.82 89.0267 5.26 88.2667 5.26C87.5267 5.26 86.9067 5.82 86.9067 6.58C86.9067 7.36 87.5267 7.9 88.2667 7.9ZM96.2627 21.32C99.1027 21.32 100.663 19.98 100.663 18C100.663 16.5 99.8427 15.52 97.7827 14.84L96.7027 14.48C95.2027 14 94.7027 13.44 94.7027 12.58C94.7027 11.54 95.4827 10.84 96.9027 10.84C97.7627 10.84 98.3827 11.08 99.2027 11.64V11L98.4427 10.8L99.0827 13.32H100.023L100.123 11.04C99.0427 10.46 98.1227 10.16 96.8627 10.16C94.2627 10.16 92.8027 11.52 92.8027 13.36C92.8027 14.94 93.8427 15.88 95.5227 16.44L96.6027 16.82C98.2227 17.32 98.6827 17.9 98.6827 18.82C98.6827 19.94 97.8027 20.62 96.1427 20.62C95.0227 20.62 94.2827 20.36 93.4627 19.82V20.54L94.3227 20.62L93.7827 17.94H92.7427L92.6827 20.44C93.8027 21.02 94.8827 21.32 96.2627 21.32ZM104.748 11.24H108.588V10.46H104.748V11.24ZM106.308 21.32C107.528 21.32 108.408 20.88 108.968 20.06L108.668 19.72C108.128 20.08 107.768 20.26 107.208 20.26C106.348 20.26 105.868 19.76 105.868 18.58V10.78L105.928 7.3H104.448L103.668 10.68L104.048 10.42L101.768 10.62V11.24H103.608V16.54C103.608 17.32 103.588 17.8 103.588 18.5C103.588 20.44 104.488 21.32 106.308 21.32ZM115.186 21.32C118.126 21.32 120.446 19.32 120.446 15.72C120.446 12.12 117.986 10.16 115.186 10.16C112.386 10.16 109.946 12.14 109.946 15.72C109.946 19.28 112.226 21.32 115.186 21.32ZM115.186 20.66C113.406 20.66 112.346 19 112.346 15.74C112.346 12.48 113.406 10.82 115.186 10.82C116.946 10.82 118.006 12.48 118.006 15.74C118.006 19 116.946 20.66 115.186 20.66ZM122.072 21H127.832V20.42L125.612 20.2H124.252L122.072 20.42V21ZM123.592 21H125.972C125.932 20.02 125.912 17.74 125.912 16.36V13.2L125.772 10.36L125.512 10.2L121.952 11.16V11.66L123.592 11.78C123.652 12.76 123.672 13.64 123.672 14.98V16.36C123.672 17.74 123.652 20.02 123.592 21ZM125.912 14.62C126.512 12.78 127.312 11.8 128.572 11.3L127.752 11.2L128.212 11.7C128.692 12.28 129.092 12.62 129.712 12.62C130.532 12.62 130.892 12.1 130.912 11.32C130.712 10.5 130.032 10.16 129.192 10.16C127.832 10.16 126.392 11.4 125.812 13.48H125.332L125.912 14.62ZM136.829 21.32C138.729 21.32 140.169 20.44 141.029 18.94L140.689 18.68C139.929 19.62 138.949 20.16 137.549 20.16C135.409 20.16 133.849 18.76 133.849 15.48C133.849 12.38 135.089 10.82 136.609 10.82C138.029 10.82 138.909 11.9 138.909 13.64C138.909 14.62 138.669 15 137.889 15H132.489V15.66H140.909C141.009 15.32 141.049 14.94 141.049 14.46C141.049 12.04 139.469 10.16 136.689 10.16C133.929 10.16 131.489 12.24 131.489 15.74C131.489 19.4 133.709 21.32 136.829 21.32Z" fill="#323232"/>
</svg>
