<svg width="28" height="28" viewBox="0 0 28 28" fill="none" xmlns="http://www.w3.org/2000/svg">
<path fill-rule="evenodd" clip-rule="evenodd" d="M14.0001 27.3334C6.63628 27.3334 0.666748 21.3639 0.666748 14.0001C0.666748 6.63628 6.63628 0.666748 14.0001 0.666748C21.3639 0.666748 27.3334 6.63628 27.3334 14.0001C27.3334 21.3639 21.3639 27.3334 14.0001 27.3334ZM14.0001 25.7334C20.4802 25.7334 25.7334 20.4802 25.7334 14.0001C25.7334 7.51994 20.4802 2.26675 14.0001 2.26675C7.51994 2.26675 2.26675 7.51994 2.26675 14.0001C2.26675 20.4802 7.51994 25.7334 14.0001 25.7334ZM17.0667 14.0001C17.0667 16.4389 16.1016 18.7208 14.4112 20.4112L15.5426 21.5426C17.4728 19.6123 18.6667 16.9456 18.6667 14.0001C18.6667 11.0546 17.4728 8.3879 15.5426 6.45761L14.4112 7.58898C16.1016 9.27937 17.0667 11.5613 17.0667 14.0001ZM11.7713 17.7713C12.7661 16.7765 13.3334 15.4352 13.3334 14.0001C13.3334 12.5649 12.7661 11.2236 11.7713 10.2288L12.9027 9.09747C14.1574 10.3522 14.9334 12.0855 14.9334 14.0001C14.9334 15.9147 14.1574 17.648 12.9027 18.9027L11.7713 17.7713ZM11.2001 14.0001C11.2001 14.8837 10.8419 15.6837 10.2628 16.2628L8.00008 14.0001L10.2628 11.7373C10.8419 12.3164 11.2001 13.1164 11.2001 14.0001Z" fill="black" fill-opacity="0.9"/>
</svg>
