<svg width="32" height="32" viewBox="0 0 32 32" fill="none" xmlns="http://www.w3.org/2000/svg">
<path fill-rule="evenodd" clip-rule="evenodd" d="M2.6665 16.0001C2.6665 23.3639 8.63604 29.3334 15.9998 29.3334C23.3636 29.3334 29.3332 23.3639 29.3332 16.0001C29.3332 8.63628 23.3636 2.66675 15.9998 2.66675C8.63604 2.66675 2.6665 8.63628 2.6665 16.0001ZM27.7332 16.0001C27.7332 22.4802 22.48 27.7334 15.9998 27.7334C9.5197 27.7334 4.2665 22.4802 4.2665 16.0001C4.2665 9.51994 9.5197 4.26675 15.9998 4.26675C22.48 4.26675 27.7332 9.51994 27.7332 16.0001ZM22.6665 15.2001V16.8001H16.7998V22.6667H15.1998V16.8001H9.33317V15.2001H15.1998V9.33341H16.7998V15.2001H22.6665Z" fill="black" fill-opacity="0.9"/>
</svg>
